HIERARCHY
ROOT Hips
{
	OFFSET 0.000000 0.000000 0.000000
	CHANNELS 6 Xposition Yposition Zposition Zrotation Xrotation Yrotation
	JOINT Spine
	{
		OFFSET 0.000000 -0.000000 0.070167
		CHANNELS 6 Xposition Yposition Zposition Zrotation Xrotation Yrotation
		JOINT Spine1
		{
			OFFSET 0.000000 -0.000000 0.166666
			CHANNELS 6 Xposition Yposition Zposition Zrotation Xrotation Yrotation
			JOINT Neck
			{
				OFFSET 0.000000 -0.000000 0.183780
				CHANNELS 6 Xposition Yposition Zposition Zrotation Xrotation Yrotation
				JOINT Head
				{
					OFFSET 0.000000 -0.017114 0.132633
					CHANNELS 6 Xposition Yposition Zposition Zrotation Xrotation Yrotation
					End Site
					{
						OFFSET 0.000000 -0.000000 0.171140
					}
				}
			}
			JOINT LeftShoulder
			{
				OFFSET 0.034466 0.004091 0.144174
				CHANNELS 6 Xposition Yposition Zposition Zrotation Xrotation Yrotation
				JOINT LeftArm
				{
					OFFSET 0.121044 0.000000 0.000000
					CHANNELS 6 Xposition Yposition Zposition Zrotation Xrotation Yrotation
					JOINT LeftForeArm
					{
						OFFSET 0.257070 0.000000 0.000000
						CHANNELS 6 Xposition Yposition Zposition Zrotation Xrotation Yrotation
						JOINT LeftHand
						{
							OFFSET 0.224060 0.000000 0.000000
							CHANNELS 6 Xposition Yposition Zposition Zrotation Xrotation Yrotation
							End Site
							{
								OFFSET 0.128355 0.000000 0.000000
							}
						}
					}
				}
			}
			JOINT RightShoulder
			{
				OFFSET -0.033538 0.004091 0.144174
				CHANNELS 6 Xposition Yposition Zposition Zrotation Xrotation Yrotation
				JOINT RightArm
				{
					OFFSET -0.121044 0.000000 0.000000
					CHANNELS 6 Xposition Yposition Zposition Zrotation Xrotation Yrotation
					JOINT RightForeArm
					{
						OFFSET -0.257070 0.000000 0.000000
						CHANNELS 6 Xposition Yposition Zposition Zrotation Xrotation Yrotation
						JOINT RightHand
						{
							OFFSET -0.224060 0.000000 0.000000
							CHANNELS 6 Xposition Yposition Zposition Zrotation Xrotation Yrotation
							End Site
							{
								OFFSET -0.128355 0.000000 0.000000
							}
						}
					}
				}
			}
		}
	}
	JOINT LeftUpLeg
	{
		OFFSET 0.085570 0.000000 0.000000
		CHANNELS 6 Xposition Yposition Zposition Zrotation Xrotation Yrotation
		JOINT LeftLeg
		{
			OFFSET 0.000000 0.000000 -0.385526
			CHANNELS 6 Xposition Yposition Zposition Zrotation Xrotation Yrotation
			JOINT LeftFoot
			{
				OFFSET 0.000000 0.000000 -0.365921
				CHANNELS 6 Xposition Yposition Zposition Zrotation Xrotation Yrotation
				JOINT LeftToeBase
				{
					OFFSET 0.000000 -0.128355 -0.055620
					CHANNELS 6 Xposition Yposition Zposition Zrotation Xrotation Yrotation
					End Site
					{
						OFFSET 0.000000 -0.034228 0.000000
					}
				}
			}
		}
	}
	JOINT RightUpLeg
	{
		OFFSET -0.085570 0.000000 0.000000
		CHANNELS 6 Xposition Yposition Zposition Zrotation Xrotation Yrotation
		JOINT RightLeg
		{
			OFFSET 0.000000 0.000000 -0.385526
			CHANNELS 6 Xposition Yposition Zposition Zrotation Xrotation Yrotation
			JOINT RightFoot
			{
				OFFSET 0.000000 0.000000 -0.365921
				CHANNELS 6 Xposition Yposition Zposition Zrotation Xrotation Yrotation
				JOINT RightToeBase
				{
					OFFSET 0.000000 -0.128355 -0.055620
					CHANNELS 6 Xposition Yposition Zposition Zrotation Xrotation Yrotation
					End Site
					{
						OFFSET 0.000000 -0.034228 0.000000
					}
				}
			}
		}
	}
}
MOTION
Frames: 9
Frame Time: 0.016667
0.003031 0.097817 0.759011 33.595604 -12.993410 0.758216 -0.000000 0.000000 0.070167 0.217014 2.171380 -3.316688 0.000000 -0.000000 0.166666 -0.271666 15.738269 2.315849 -0.000000 -0.000000 0.183780 2.359912 6.232945 4.246156 0.000000 -0.017114 0.132633 2.139904 14.894775 5.317157 0.034466 0.004091 0.144174 -5.399335 3.629770 -2.861301 0.121044 0.000000 -0.000000 -25.660768 -5.190314 59.297735 0.257070 0.000000 -0.000000 -40.731591 15.447661 7.161245 0.224060 0.000000 -0.000000 -9.245856 17.470663 6.824944 -0.033538 0.004091 0.144174 -11.678214 2.626164 6.607737 -0.121044 -0.000000 -0.000000 59.585621 13.680101 -54.688075 -0.257070 0.000000 0.000000 54.733977 7.277730 17.684164 -0.224060 0.000000 0.000000 20.063703 -0.787713 6.563217 0.085570 0.000000 0.000000 3.146765 -22.730204 -4.341323 0.000000 0.000000 -0.385526 15.290572 66.059746 -10.037919 0.000000 0.000000 -0.365921 6.198718 -14.700684 1.668902 0.000000 -0.128355 -0.055620 -0.000000 0.000001 0.000001 -0.085570 0.000000 -0.000000 -4.242516 -3.115723 1.791483 -0.000000 0.000000 -0.385526 39.163007 36.696824 -28.789083 -0.000000 0.000000 -0.365921 -18.091296 -24.845667 9.597385 -0.000000 -0.128355 -0.055620 -0.000001 0.000001 0.000001 
0.004707 0.093095 0.759783 33.685352 -12.763339 0.765852 -0.000000 -0.000000 0.070167 0.601356 2.083234 -3.353109 -0.000000 -0.000000 0.166666 -0.119599 15.725551 2.148357 0.000000 -0.000000 0.183780 2.425395 6.104140 4.476996 0.000000 -0.017114 0.132633 2.178756 15.061561 5.316514 0.034466 0.004091 0.144174 -4.694276 3.657926 -2.557854 0.121044 -0.000000 -0.000000 -23.080792 -5.367697 60.143791 0.257070 -0.000000 -0.000000 -39.973187 15.559389 7.600866 0.224060 0.000000 0.000000 -9.355845 17.685803 6.707478 -0.033538 0.004091 0.144174 -11.524119 2.327840 6.719328 -0.121044 0.000000 0.000000 59.738603 12.601275 -53.871536 -0.257070 0.000000 -0.000000 54.681907 7.837440 18.408056 -0.224060 -0.000000 -0.000000 19.073742 -1.471366 1.725838 0.085570 -0.000000 -0.000000 3.768555 -22.939911 -4.024030 -0.000000 0.000000 -0.385526 18.511045 63.282502 -12.292102 -0.000000 0.000000 -0.365921 5.174414 -15.269255 1.174751 -0.000000 -0.128355 -0.055620 -0.000000 0.000000 -0.000001 -0.085570 -0.000000 -0.000000 -4.161503 -2.664754 1.727452 -0.000000 0.000000 -0.385526 38.730294 36.276665 -28.375533 -0.000000 0.000000 -0.365921 -18.118699 -25.022400 9.597509 -0.000000 -0.128355 -0.055620 -0.000001 0.000001 0.000000 
0.006531 0.088260 0.761226 33.710542 -12.490174 0.825524 -0.000000 -0.000000 0.070167 1.036314 2.013802 -3.434166 -0.000000 -0.000000 0.166666 0.048424 15.378326 2.028718 -0.000000 -0.000000 0.183780 2.363221 6.573292 4.538100 0.000000 -0.017114 0.132633 2.133152 14.879634 5.515600 0.034466 0.004091 0.144174 -4.197490 4.022841 -2.262746 0.121044 0.000000 -0.000000 -20.641127 -5.210727 61.021914 0.257070 -0.000000 -0.000000 -39.232221 15.865213 7.434444 0.224060 0.000000 -0.000000 -9.828807 17.824598 7.041670 -0.033538 0.004091 0.144174 -11.193711 2.336166 6.687000 -0.121044 0.000000 -0.000000 59.675438 11.385080 -53.017598 -0.257070 -0.000000 0.000000 54.586380 8.166739 18.944979 -0.224060 0.000000 0.000000 19.415361 -1.446491 1.456450 0.085570 -0.000000 0.000000 4.346422 -23.234253 -3.703754 -0.000000 0.000000 -0.385526 14.284955 61.203986 -7.968793 0.000000 0.000000 -0.365921 7.863923 -15.214695 1.169925 -0.000000 -0.128355 -0.055620 -0.000002 -0.000003 -0.000001 -0.085570 -0.000000 -0.000000 -4.163440 -2.153141 1.578931 0.000000 0.000000 -0.385526 38.122568 35.739778 -27.648824 -0.000000 0.000000 -0.365921 -18.007819 -24.907089 9.601596 -0.000000 -0.128355 -0.055620 -0.000005 0.000001 -0.000002 
0.008328 0.083442 0.763116 33.765737 -12.185186 0.950006 -0.000000 -0.000000 0.070167 1.501518 1.880368 -3.486315 0.000000 -0.000000 0.166666 0.243490 15.168583 1.762596 -0.000000 -0.000000 0.183780 2.274776 7.128031 4.724677 0.000000 -0.017114 0.132633 2.075496 14.266043 5.588447 0.034466 0.004091 0.144174 -3.816118 4.229880 -1.887724 0.121044 -0.000000 0.000000 -18.522997 -4.680133 61.804838 0.257070 -0.000000 -0.000000 -38.639521 15.905245 6.939613 0.224060 0.000000 0.000000 -9.810002 17.635663 7.315529 -0.033538 0.004091 0.144174 -10.977384 2.242467 6.634313 -0.121044 -0.000000 0.000000 59.717512 10.263198 -52.206609 -0.257070 -0.000000 -0.000000 54.662906 8.190085 19.574964 -0.224060 -0.000000 -0.000000 19.345420 -1.697571 1.925822 0.085570 0.000000 0.000000 4.964743 -23.233377 -3.512464 -0.000000 0.000000 -0.385526 13.957918 58.242690 -7.137559 0.000000 0.000000 -0.365921 7.740968 -15.707680 0.464154 0.000000 -0.128355 -0.055620 -0.000002 -0.000003 0.000002 -0.085570 0.000000 -0.000000 -4.227834 -1.554331 1.347779 0.000000 0.000000 -0.385526 37.231867 35.113569 -26.599410 0.000000 0.000000 -0.365921 -17.807570 -24.723613 9.441139 -0.000000 -0.128355 -0.055620 0.000000 0.000004 -0.000000 
0.010373 0.078483 0.765653 33.827885 -11.937340 1.064781 0.000000 -0.000000 0.070167 1.898957 1.851770 -3.565757 0.000000 -0.000000 0.166666 0.398265 14.876065 1.624441 0.000000 -0.000000 0.183780 2.183962 7.743159 4.739243 0.000000 -0.017114 0.132633 2.040683 13.511786 5.857626 0.034466 0.004091 0.144174 -3.258661 4.503250 -1.659847 0.121044 -0.000000 -0.000000 -16.389266 -4.318011 62.476751 0.257070 0.000000 -0.000000 -38.010997 16.012199 6.855429 0.224060 0.000000 0.000000 -9.597236 17.705860 7.071494 -0.033538 0.004091 0.144174 -10.689291 2.052118 6.640984 -0.121044 0.000000 0.000000 59.779489 9.112212 -51.666017 -0.257070 0.000000 -0.000000 54.586011 8.498084 20.128009 -0.224060 -0.000000 -0.000000 19.388376 -1.630634 2.127822 0.085570 -0.000000 -0.000000 5.609807 -22.911680 -3.243329 -0.000000 0.000000 -0.385526 13.916107 54.839452 -6.632642 0.000000 0.000000 -0.365921 7.212446 -15.926316 0.209676 -0.000000 -0.128355 -0.055620 -0.000003 -0.000000 0.000001 -0.085570 -0.000000 -0.000000 -4.473700 -0.762250 1.148495 -0.000000 0.000000 -0.385526 36.348102 34.282854 -25.349226 0.000000 0.000000 -0.365921 -17.575588 -24.353045 9.235427 -0.000000 -0.128355 -0.055620 -0.000005 0.000002 -0.000001 
0.012526 0.073597 0.768620 33.852859 -11.611737 1.199016 -0.000000 -0.000000 0.070167 2.342520 1.906586 -3.678440 0.000000 -0.000000 0.166666 0.562246 14.339207 1.544926 -0.000000 -0.000000 0.183780 2.154740 7.753995 5.087526 0.000000 -0.017114 0.132633 1.969902 13.811309 5.403999 0.034466 0.004091 0.144174 -2.616768 4.713660 -1.506576 0.121044 0.000000 0.000000 -14.567141 -3.542274 63.319918 0.257070 0.000000 -0.000000 -37.552527 16.487102 6.141197 0.224060 0.000000 -0.000000 -9.552598 17.928174 6.946979 -0.033538 0.004091 0.144174 -10.424323 1.982747 6.603502 -0.121044 0.000000 -0.000000 59.952006 8.169840 -51.221955 -0.257070 -0.000000 0.000000 54.653002 8.695005 20.898398 -0.224060 -0.000000 0.000000 19.318647 -1.810631 2.433364 0.085570 0.000000 -0.000000 6.329239 -22.389705 -3.013175 -0.000000 0.000000 -0.385526 12.598500 51.082541 -5.049000 0.000000 0.000000 -0.365921 7.021338 -16.078340 0.067039 0.000000 -0.128355 -0.055620 0.000001 -0.000001 -0.000002 -0.085570 -0.000000 -0.000000 -4.563750 0.026896 0.945113 0.000000 0.000000 -0.385526 34.881674 33.502768 -23.819516 0.000000 0.000000 -0.365921 -16.959495 -23.812152 9.020691 -0.000000 -0.128355 -0.055620 0.000002 -0.000000 -0.000000 
0.014946 0.068441 0.772046 33.983675 -11.341865 1.309713 -0.000000 -0.000000 0.070167 2.714363 1.934907 -3.727090 -0.000000 -0.000000 0.166666 0.703079 13.819103 1.461883 -0.000000 -0.000000 0.183780 1.957097 8.236990 4.943382 -0.000000 -0.017114 0.132633 1.813466 13.465814 5.914366 0.034466 0.004091 0.144174 -2.148581 5.056627 -1.338246 0.121044 0.000000 -0.000000 -12.939382 -2.671871 63.842454 0.257070 -0.000000 -0.000000 -37.216434 16.317856 5.552829 0.224060 0.000000 0.000000 -8.934317 17.609228 6.660539 -0.033538 0.004091 0.144174 -10.095969 2.015879 6.630405 -0.121044 -0.000000 -0.000000 60.264924 7.430527 -50.856981 -0.257070 -0.000000 -0.000000 54.704785 8.740147 21.795595 -0.224060 -0.000000 -0.000000 19.031965 -2.184511 2.933958 0.085570 -0.000000 -0.000000 6.912362 -21.741235 -2.718420 0.000000 0.000000 -0.385526 11.510011 47.206678 -3.728455 0.000000 0.000000 -0.365921 6.839522 -15.618433 -0.368970 -0.000000 -0.128355 -0.055620 -0.000001 -0.000001 0.000000 -0.085570 -0.000000 -0.000000 -4.819595 0.960266 0.816121 -0.000000 0.000000 -0.385526 33.539849 32.391588 -22.265600 -0.000000 0.000000 -0.365921 -16.364720 -22.978599 8.691394 -0.000000 -0.128355 -0.055620 -0.000003 0.000001 0.000002 
0.017541 0.063346 0.775627 34.099675 -11.050774 1.386776 0.000000 -0.000000 0.070167 3.156038 2.157918 -3.750025 0.000000 -0.000000 0.166666 0.862003 13.003993 1.426647 0.000000 -0.000000 0.183780 2.111222 8.083403 5.502211 -0.000000 -0.017114 0.132633 1.887319 14.332220 4.688632 0.034466 0.004091 0.144174 -1.570607 5.392388 -1.162710 0.121044 -0.000000 -0.000000 -11.640945 -1.572574 64.284750 0.257070 0.000000 0.000000 -36.960858 16.521963 4.812344 0.224060 0.000000 -0.000000 -8.581934 17.607488 6.307206 -0.033538 0.004091 0.144174 -9.900972 2.072592 6.581130 -0.121044 0.000000 0.000000 60.423098 6.597049 -50.590456 -0.257070 -0.000000 0.000000 54.712093 9.022713 22.522547 -0.224060 -0.000000 -0.000000 18.945442 -2.293118 2.957931 0.085570 -0.000000 -0.000000 7.385337 -21.001525 -2.433033 -0.000000 0.000000 -0.385526 10.335495 43.220836 -2.397943 -0.000000 0.000000 -0.365921 6.952823 -14.514135 -0.158139 0.000000 -0.128355 -0.055620 0.000000 0.000001 0.000001 -0.085570 -0.000000 -0.000000 -5.181880 1.845632 0.769153 0.000000 0.000000 -0.385526 32.476464 31.273452 -20.915643 -0.000000 0.000000 -0.365921 -15.920358 -22.040539 8.264200 0.000000 -0.128355 -0.055620 -0.000001 0.000000 0.000001 
0.020350 0.058391 0.779522 34.236409 -10.705295 1.408493 -0.000000 -0.000000 0.070167 3.566521 2.060264 -3.739694 0.000000 -0.000000 0.166666 1.010298 12.686825 1.370657 -0.000000 -0.000000 0.183780 2.077978 8.197636 5.725397 0.000000 -0.017114 0.132633 1.845973 14.256178 4.386578 0.034466 0.004091 0.144174 -1.241236 5.682115 -1.179327 0.121044 -0.000000 -0.000000 -10.062445 -0.757151 64.779952 0.257070 -0.000000 -0.000000 -36.689888 16.646682 4.315121 0.224060 0.000000 -0.000000 -8.371735 17.588922 6.082061 -0.033538 0.004091 0.144174 -9.755284 2.025755 6.736506 -0.121044 -0.000000 -0.000000 60.829330 5.854830 -50.329236 -0.257070 -0.000000 0.000000 54.874699 8.941673 23.390384 -0.224060 0.000000 -0.000000 18.609754 -2.839319 3.324891 0.085570 -0.000000 -0.000000 8.103670 -20.261970 -1.937671 0.000000 0.000000 -0.385526 9.348658 39.203636 -1.458153 0.000000 0.000000 -0.365921 7.069835 -13.073603 -0.424585 -0.000000 -0.128355 -0.055620 -0.000004 -0.000000 0.000001 -0.085570 0.000000 -0.000000 -2.575933 3.082549 0.606206 0.000000 0.000000 -0.385526 29.240771 29.242816 -19.623330 -0.000000 0.000000 -0.365921 -16.454324 -21.299050 7.775255 -0.000000 -0.128355 -0.055620 -0.000001 -0.000001 0.000001 
